<svg width="20" height="20" viewBox="0 0 20 20" fill="none" xmlns="http://www.w3.org/2000/svg">
<path d="M10.8327 3.93203C11.5576 3.93203 12.2528 4.22001 12.7654 4.73261C13.278 5.2452 13.566 5.94044 13.566 6.66536C13.566 7.39029 13.278 8.08552 12.7654 8.59812C12.2528 9.11072 11.5576 9.3987 10.8327 9.3987C10.1078 9.3987 9.41252 9.11072 8.89992 8.59812C8.38732 8.08552 8.09935 7.39029 8.09935 6.66536C8.09935 5.94044 8.38732 5.24521 8.89992 4.73261C9.41252 4.22001 10.1078 3.93203 10.8327 3.93203ZM10.8327 12.2654C12.6015 12.2654 14.1724 12.6248 15.2789 13.1781C16.4212 13.7492 16.8993 14.4274 16.8993 14.9987V16.0654H4.76602V14.9987C4.76602 14.4274 5.24417 13.7492 6.38643 13.1781C7.49295 12.6248 9.06389 12.2654 10.8327 12.2654Z" stroke="#1890FF" stroke-width="1.2"/>
</svg>
